{
	"asset":{
		"generator":"Khronos glTF Blender I/O v3.6.28",
		"version":"2.0"
	},
	"scene":0,
	"scenes":[
		{
			"name":"Scene",
			"nodes":[
				1
			]
		}
	],
	"nodes":[
		{
			"mesh":0,
			"name":"Plane.003",
			"translation":[
				-2.4514355659484863,
				1.3851982355117798,
				1.5196161270141602
			]
		},
		{
			"children":[
				0
			],
			"mesh":1,
			"name":"Plane.001"
		}
	],
	"materials":[
		{
			"doubleSided":true,
			"name":"Material",
			"pbrMetallicRoughness":{
				"baseColorFactor":[
					0.800000011920929,
					0.800000011920929,
					0.800000011920929,
					1
				],
				"metallicFactor":0,
				"roughnessFactor":0.5
			}
		},
		{
			"doubleSided":true,
			"name":"Material.001",
			"pbrMetallicRoughness":{
				"baseColorFactor":[
					0.1522863209247589,
					0.1522863209247589,
					0.1522863209247589,
					1
				],
				"metallicFactor":0,
				"roughnessFactor":0.5
			}
		}
	],
	"meshes":[
		{
			"name":"Plane.016",
			"primitives":[
				{
					"attributes":{
						"COLOR_0":0,
						"POSITION":1,
						"NORMAL":2,
						"TEXCOORD_0":3
					},
					"indices":4,
					"material":0
				},
				{
					"attributes":{
						"COLOR_0":5,
						"POSITION":6,
						"NORMAL":7,
						"TEXCOORD_0":8
					},
					"indices":9,
					"material":1
				}
			]
		},
		{
			"name":"Plane.001",
			"primitives":[
				{
					"attributes":{
						"COLOR_0":10,
						"POSITION":11,
						"NORMAL":12,
						"TEXCOORD_0":13
					},
					"indices":14,
					"material":0
				}
			]
		}
	],
	"accessors":[
		{
			"bufferView":0,
			"componentType":5123,
			"count":138,
			"normalized":true,
			"type":"VEC4"
		},
		{
			"bufferView":1,
			"componentType":5126,
			"count":138,
			"max":[
				3.9793617725372314,
				1.3851988315582275,
				0.4177565574645996
			],
			"min":[
				0,
				-1.3851984739303589,
				-2.478065823652287e-07
			],
			"type":"VEC3"
		},
		{
			"bufferView":2,
			"componentType":5126,
			"count":138,
			"type":"VEC3"
		},
		{
			"bufferView":3,
			"componentType":5126,
			"count":138,
			"type":"VEC2"
		},
		{
			"bufferView":4,
			"componentType":5123,
			"count":564,
			"type":"SCALAR"
		},
		{
			"bufferView":5,
			"componentType":5123,
			"count":48,
			"normalized":true,
			"type":"VEC4"
		},
		{
			"bufferView":6,
			"componentType":5126,
			"count":48,
			"max":[
				3.9793617725372314,
				1.232563853263855,
				0.19654233753681183
			],
			"min":[
				0.44484540820121765,
				-1.1888104677200317,
				0.15777771174907684
			],
			"type":"VEC3"
		},
		{
			"bufferView":7,
			"componentType":5126,
			"count":48,
			"type":"VEC3"
		},
		{
			"bufferView":8,
			"componentType":5126,
			"count":48,
			"type":"VEC2"
		},
		{
			"bufferView":9,
			"componentType":5123,
			"count":180,
			"type":"SCALAR"
		},
		{
			"bufferView":10,
			"componentType":5123,
			"count":432,
			"normalized":true,
			"type":"VEC4"
		},
		{
			"bufferView":11,
			"componentType":5126,
			"count":432,
			"max":[
				2.4514355659484863,
				2.770397186279297,
				1.86350679397583
			],
			"min":[
				-2.4514355659484863,
				0,
				-1.698050618171692
			],
			"type":"VEC3"
		},
		{
			"bufferView":12,
			"componentType":5126,
			"count":432,
			"type":"VEC3"
		},
		{
			"bufferView":13,
			"componentType":5126,
			"count":432,
			"type":"VEC2"
		},
		{
			"bufferView":14,
			"componentType":5123,
			"count":1692,
			"type":"SCALAR"
		}
	],
	"bufferViews":[
		{
			"buffer":0,
			"byteLength":1104,
			"byteOffset":0,
			"target":34962
		},
		{
			"buffer":0,
			"byteLength":1656,
			"byteOffset":1104,
			"target":34962
		},
		{
			"buffer":0,
			"byteLength":1656,
			"byteOffset":2760,
			"target":34962
		},
		{
			"buffer":0,
			"byteLength":1104,
			"byteOffset":4416,
			"target":34962
		},
		{
			"buffer":0,
			"byteLength":1128,
			"byteOffset":5520,
			"target":34963
		},
		{
			"buffer":0,
			"byteLength":384,
			"byteOffset":6648,
			"target":34962
		},
		{
			"buffer":0,
			"byteLength":576,
			"byteOffset":7032,
			"target":34962
		},
		{
			"buffer":0,
			"byteLength":576,
			"byteOffset":7608,
			"target":34962
		},
		{
			"buffer":0,
			"byteLength":384,
			"byteOffset":8184,
			"target":34962
		},
		{
			"buffer":0,
			"byteLength":360,
			"byteOffset":8568,
			"target":34963
		},
		{
			"buffer":0,
			"byteLength":3456,
			"byteOffset":8928,
			"target":34962
		},
		{
			"buffer":0,
			"byteLength":5184,
			"byteOffset":12384,
			"target":34962
		},
		{
			"buffer":0,
			"byteLength":5184,
			"byteOffset":17568,
			"target":34962
		},
		{
			"buffer":0,
			"byteLength":3456,
			"byteOffset":22752,
			"target":34962
		},
		{
			"buffer":0,
			"byteLength":3384,
			"byteOffset":26208,
			"target":34963
		}
	],
	"buffers":[
		{
			"byteLength":29592,
			"uri":"data:application/octet-stream;base64,"
		}
	]
}
