{
	"asset":{
		"generator":"Khronos glTF Blender I/O v3.6.28",
		"version":"2.0"
	},
	"extensionsUsed":[
		"KHR_materials_specular",
		"KHR_texture_transform"
	],
	"extensionsRequired":[
		"KHR_texture_transform"
	],
	"scene":0,
	"scenes":[
		{
			"name":"Scene",
			"nodes":[
				0,
				1
			]
		}
	],
	"nodes":[
		{
			"mesh":0,
			"name":"mug",
			"rotation":[
				0,
				-0.7486791014671326,
				0,
				0.6629325747489929
			],
			"translation":[
				0,
				-0.0008389322319999337,
				0
			]
		},
		{
			"name":"focus",
			"scale":[
				0.01962452568113804,
				0.01962452568113804,
				0.01962452568113804
			],
			"translation":[
				0.03359596058726311,
				0.04856611788272858,
				0.0012442946899682283
			]
		}
	],
	"materials":[
		{
			"doubleSided":true,
			"extensions":{
				"KHR_materials_specular":{
					"specularColorFactor":[
						1.2000000476837156,
						1.2000000476837156,
						1.2000000476837156
					]
				}
			},
			"name":"white",
			"pbrMetallicRoughness":{
				"metallicFactor":0,
				"roughnessFactor":0.20000000298023224
			}
		},
		{
			"doubleSided":true,
			"extensions":{
				"KHR_materials_specular":{
					"specularColorFactor":[
						1.2000000476837156,
						1.2000000476837156,
						1.2000000476837156
					]
				}
			},
			"name":"red",
			"pbrMetallicRoughness":{
				"baseColorFactor":[
					0.27107927203178406,
					0.002069158712401986,
					0.009229377843439579,
					1
				],
				"metallicFactor":0,
				"metallicRoughnessTexture":{
					"extensions":{
						"KHR_texture_transform":{
							"offset":[
								-0.1287955863497611,
								0.008328836288550079
							],
							"rotation":0.12915435433387756
						}
					},
					"index":0,
					"texCoord":1
				}
			}
		}
	],
	"meshes":[
		{
			"name":"Circle",
			"primitives":[
				{
					"attributes":{
						"POSITION":0,
						"NORMAL":1,
						"TEXCOORD_0":2,
						"TEXCOORD_1":3
					},
					"indices":4,
					"material":0
				},
				{
					"attributes":{
						"POSITION":5,
						"NORMAL":6,
						"TEXCOORD_0":7,
						"TEXCOORD_1":8
					},
					"indices":9,
					"material":1
				}
			]
		}
	],
	"textures":[
		{
			"sampler":0,
			"source":0
		}
	],
	"images":[
		{
			"bufferView":10,
			"mimeType":"image/png",
			"name":"Fingerprints"
		}
	],
	"accessors":[
		{
			"bufferView":0,
			"componentType":5126,
			"count":110,
			"max":[
				0.04143821820616722,
				0.09356862306594849,
				0.041186992079019547
			],
			"min":[
				-0.040917426347732544,
				0,
				-0.039072632789611816
			],
			"type":"VEC3"
		},
		{
			"bufferView":1,
			"componentType":5126,
			"count":110,
			"type":"VEC3"
		},
		{
			"bufferView":2,
			"componentType":5126,
			"count":110,
			"type":"VEC2"
		},
		{
			"bufferView":3,
			"componentType":5126,
			"count":110,
			"type":"VEC2"
		},
		{
			"bufferView":4,
			"componentType":5123,
			"count":555,
			"type":"SCALAR"
		},
		{
			"bufferView":5,
			"componentType":5126,
			"count":323,
			"max":[
				0.04143821820616722,
				0.09356862306594849,
				0.041186992079019547
			],
			"min":[
				-0.040917426347732544,
				0,
				-0.06421077996492386
			],
			"type":"VEC3"
		},
		{
			"bufferView":6,
			"componentType":5126,
			"count":323,
			"type":"VEC3"
		},
		{
			"bufferView":7,
			"componentType":5126,
			"count":323,
			"type":"VEC2"
		},
		{
			"bufferView":8,
			"componentType":5126,
			"count":323,
			"type":"VEC2"
		},
		{
			"bufferView":9,
			"componentType":5123,
			"count":1395,
			"type":"SCALAR"
		}
	],
	"bufferViews":[
		{
			"buffer":0,
			"byteLength":1320,
			"byteOffset":0,
			"target":34962
		},
		{
			"buffer":0,
			"byteLength":1320,
			"byteOffset":1320,
			"target":34962
		},
		{
			"buffer":0,
			"byteLength":880,
			"byteOffset":2640,
			"target":34962
		},
		{
			"buffer":0,
			"byteLength":880,
			"byteOffset":3520,
			"target":34962
		},
		{
			"buffer":0,
			"byteLength":1110,
			"byteOffset":4400,
			"target":34963
		},
		{
			"buffer":0,
			"byteLength":3876,
			"byteOffset":5512,
			"target":34962
		},
		{
			"buffer":0,
			"byteLength":3876,
			"byteOffset":9388,
			"target":34962
		},
		{
			"buffer":0,
			"byteLength":2584,
			"byteOffset":13264,
			"target":34962
		},
		{
			"buffer":0,
			"byteLength":2584,
			"byteOffset":15848,
			"target":34962
		},
		{
			"buffer":0,
			"byteLength":2790,
			"byteOffset":18432,
			"target":34963
		},
		{
			"buffer":0,
			"byteLength":2459390,
			"byteOffset":21224
		}
	],
	"samplers":[
		{
			"magFilter":9729,
			"minFilter":9987
		}
	],
	"buffers":[
		{
			"byteLength":2480616,
			"uri":"data:application/octet-stream;base64,"
		}
	]
}
