{
	"asset":{
		"generator":"Khronos glTF Blender I/O v3.6.28",
		"version":"2.0"
	},
	"extensionsUsed":[
		"KHR_materials_transmission",
		"KHR_materials_specular"
	],
	"scene":0,
	"scenes":[
		{
			"name":"Scene",
			"nodes":[
				0
			]
		}
	],
	"nodes":[
		{
			"mesh":0,
			"name":"14042_750_mL_Wine_Bottle_r_v1_L3",
			"rotation":[
				0.7071068286895752,
				0,
				0,
				0.7071068286895752
			]
		}
	],
	"materials":[
		{
			"doubleSided":true,
			"extensions":{
				"KHR_materials_transmission":{
					"transmissionFactor":1
				},
				"KHR_materials_specular":{
					"specularColorFactor":[
						1,
						1,
						1
					]
				}
			},
			"name":"Material__0",
			"pbrMetallicRoughness":{
				"baseColorTexture":{
					"index":0
				},
				"metallicFactor":0,
				"roughnessFactor":0.7763931751251221
			}
		}
	],
	"meshes":[
		{
			"name":"14042_750_mL_Wine_Bottle_r_v1_L3",
			"primitives":[
				{
					"attributes":{
						"POSITION":0,
						"NORMAL":1,
						"TEXCOORD_0":2
					},
					"indices":3,
					"material":0
				}
			]
		}
	],
	"textures":[
		{
			"sampler":0,
			"source":0
		}
	],
	"images":[
		{
			"bufferView":4,
			"mimeType":"image/jpeg",
			"name":"14042_750 mL_Wine_Bottle_dfinal"
		}
	],
	"accessors":[
		{
			"bufferView":0,
			"componentType":5126,
			"count":13831,
			"max":[
				2.5971999168395996,
				21.15180015563965,
				2.5971999168395996
			],
			"min":[
				-2.5971999168395996,
				-0.004800000227987766,
				-2.5971999168395996
			],
			"type":"VEC3"
		},
		{
			"bufferView":1,
			"componentType":5126,
			"count":13831,
			"type":"VEC3"
		},
		{
			"bufferView":2,
			"componentType":5126,
			"count":13831,
			"type":"VEC2"
		},
		{
			"bufferView":3,
			"componentType":5123,
			"count":79488,
			"type":"SCALAR"
		}
	],
	"bufferViews":[
		{
			"buffer":0,
			"byteLength":165972,
			"byteOffset":0,
			"target":34962
		},
		{
			"buffer":0,
			"byteLength":165972,
			"byteOffset":165972,
			"target":34962
		},
		{
			"buffer":0,
			"byteLength":110648,
			"byteOffset":331944,
			"target":34962
		},
		{
			"buffer":0,
			"byteLength":158976,
			"byteOffset":442592,
			"target":34963
		},
		{
			"buffer":0,
			"byteLength":111265,
			"byteOffset":601568
		}
	],
	"samplers":[
		{
			"magFilter":9729,
			"minFilter":9987
		}
	],
	"buffers":[
		{
			"byteLength":712836,
			"uri":"data:application/octet-stream;base64,"
		}
	]
}
