{"accessors":[{"bufferView":0,"componentType":5123,"count":1806,"max":[580],"min":[0],"type":"SCALAR"},{"bufferView":1,"componentType":5126,"count":581,"max":[19.555648803710938,34.8819580078125,22.107559204101562],"min":[-20.03545379638672,0.0,-25.39056396484375],"type":"VEC3"},{"bufferView":2,"componentType":5126,"count":581,"max":[0.9988781213760376,1.0,0.9988781213760376],"min":[-0.9988781213760376,-1.0,-0.9988781213760376],"type":"VEC3"},{"bufferView":3,"componentType":5126,"count":581,"max":[3.2812108993530273,0.7620660066604614],"min":[-2.979609966278076,-0.6437530517578125],"type":"VEC2"}],"asset":{"copyright":null,"generator":"Verge3D for Maya","version":"2.0"},"bufferViews":[{"buffer":0,"byteLength":3612,"byteOffset":0,"target":34963},{"buffer":0,"byteLength":6972,"byteOffset":3612,"target":34962},{"buffer":0,"byteLength":6972,"byteOffset":10584,"target":34962},{"buffer":0,"byteLength":4648,"byteOffset":17556,"target":34962}],"buffers":[{"byteLength":22204,"uri":"plant.bin"}],"cameras":[{"extensions":{"S8S_v3d_camera":{"controls":"ORBIT","enablePan":true,"moveSpeed":1.0,"orbitMaxDistance":1000.0,"orbitMaxPolarAngle":3.141592653589793,"orbitMaxZoom":100.0,"orbitMinDistance":0.0,"orbitMinPolarAngle":0.0,"orbitMinZoom":0.009999999776482582,"orbitTarget":[-3.1271311273928717,11.30452796424467,-5.351264845790567],"rotateSpeed":1.0,"viewportFitInitialAspect":1.5,"viewportFitType":"HORIZONTAL"}},"name":"perspShape","perspective":{"aspectRatio":1.5,"yfov":0.6605947096585074,"zfar":10000.0,"znear":0.1},"type":"perspective"}],"extensions":{"S8S_v3d_lights":{"lights":[{"color":[1,1,1],"intensity":2.5,"name":"__DEFAULT__","profile":"maya","type":"directional"}]}},"extensionsUsed":["S8S_v3d_texture","S8S_v3d_materials","S8S_v3d_lights","S8S_v3d_camera","S8S_v3d_mesh","S8S_v3d_node","S8S_v3d_scene"],"images":[{"mimeType":"image/png","uri":"eb_house_plant_01_c.png"},{"mimeType":"image/png","uri":"eb_house_plant_01_g.png"}],"materials":[{"alphaMode":"BLEND","extensions":{"S8S_v3d_materials":{"gtaoVisible":true,"nodeGraph":{"edges":[{"fromNode":1,"fromOutput":0,"toInput":0,"toNode":0},{"fromNode":2,"fromOutput":1,"toInput":1,"toNode":1},{"fromNode":3,"fromOutput":0,"toInput":0,"toNode":2},{"fromChannel":1,"fromNode":4,"fromOutput":1,"toInput":3,"toNode":1},{"fromNode":5,"fromOutput":0,"toInput":0,"toNode":4},{"fromChannel":0,"fromNode":4,"fromOutput":1,"toInput":6,"toNode":1}],"nodes":[{"inputs":[[0.0,0.0,0.0,1],[0,0,0,0],[0,0,0]],"is_active_output":true,"name":"standardSurface1SG","outputs":[],"type":"SHADING_ENGINE_MY"},{"inputs":[1.0,[0.0,0.0,0.0],0.0,0.0,1.0,[1.0,1.0,1.0],0.0,1.0,[1.0,1.0,1.0],0.0,[0.0,0.0,0.0],0.0,0.0,[1.0,1.0,1.0],[1.0,1.0,1.0],0.0,[1.0,1.0,1.0],0.10000000149011612,0.0,[1.0,1.0,1.0],0.30000001192092896,0.0,[1.0,1.0,1.0],[1.0,1.0,1.0],[1.0,1.0,1.0],[0.0,0.0,0.0],1.5],"name":"standardSurface1","outputs":[[0.0,0.0,0.0,0],[1.0,1.0,1.0]],"thinWalled":false,"type":"STANDARD_SURFACE_AR"},{"fileHasAlpha":false,"inputs":[[0.0,0.0]],"name":"file1","outputs":[1.0,[0.0,0.0,0.0],[2048.0,2048.0],[0.0,0.0,0.0]],"texture":0,"type":"FILE_MY"},{"inputs":[[0.0,0.0],[1.0,1.0],0.0],"name":"place2dTexture1","outputs":[[0.0,0.0]],"type":"PLACE_2D_TEXTURE_MY","uvIndex":0},{"fileHasAlpha":false,"inputs":[[0.0,0.0]],"name":"file3","outputs":[1.0,[0.0,0.0,0.0],[2048.0,2048.0],[0.0,0.0,0.0]],"texture":1,"type":"FILE_MY"},{"inputs":[[0.0,0.0],[1.0,1.0],0.0],"name":"place2dTexture3","outputs":[[0.0,0.0]],"type":"PLACE_2D_TEXTURE_MY","uvIndex":0}]},"profile":"maya"}},"name":"standardSurface1"},{"extensions":{"S8S_v3d_materials":{"nodeGraph":{"edges":[{"fromNode":0,"fromOutput":0,"toInput":0,"toNode":1}],"nodes":[{"inputs":[[0.10653923276464054,0.10653923276464054,0.10653923276464054],[0,0,0],[0,0,0],[0,0,0],[0,0,0],[0,0,0]],"name":"aiRaySwitchColor","outputs":[[0,0,0],0],"type":"RAY_SWITCH_AR"},{"inputs":[[0,0,0],1],"is_active_output":true,"name":"aiSkyDomeLightShapeColor","outputs":[],"type":"SKYDOME_LIGHT_AR"}]},"profile":"maya"}},"name":"Verge3D_Environment"}],"meshes":[{"extensions":{"S8S_v3d_mesh":{}},"name":"eb_house_plant_01:polySurface8Shape","primitives":[{"attributes":{"NORMAL":2,"POSITION":1,"TEXCOORD_0":3},"indices":0,"material":0,"mode":4}]}],"nodes":[{"extensions":{"S8S_v3d_node":{"frustumCulling":true,"hidden":false,"hidpiCompositing":false,"renderOrder":0,"useCastShadows":true,"useShadows":true}},"mesh":0,"name":"eb_house_plant_01:polySurface8","rotation":[0.0,0.0,0.0,1.0],"scale":[1.0,1.0,1.0],"translation":[0.0,0.0,0.0]},{"camera":0,"children":[2],"extensions":{"S8S_v3d_node":{"hidden":true,"hidpiCompositing":false}},"name":"persp","rotation":[-0.2230243961057575,0.37136585056309357,0.09237972960707397,0.8965564730316413],"scale":[1.0,1.0,1.0],"translation":[80.27999810997208,73.85987489226846,78.05586439157446]},{"extensions":{"S8S_v3d_lights":{"light":0}},"name":"__DEFAULT_LIGHT__","rotation":[-0.13052619222005157,-0.0,-0.0,0.9914448613738104],"translation":[80.27999810997208,73.85987489226846,78.05586439157446]}],"samplers":[{}],"scene":0,"scenes":[{"extensions":{"S8S_v3d_scene":{"aaMethod":"AUTO","iblEnvironmentMode":"PMREM","physicallyCorrectLights":true,"shadowMap":{"esmDistanceScale":2.5,"renderReverseSided":false,"renderSingleSided":true,"type":"PCFPOISSON"},"unitsScaleFactor":1.0,"useHDR":false,"useOIT":false,"worldMaterial":1}},"extras":{"animFrameRate":24.0,"coordSystem":"Y_UP_RIGHT"},"name":"Scene","nodes":[0,1]}],"textures":[{"extensions":{"S8S_v3d_texture":{"colorSpace":"srgb"}},"name":"file1","sampler":0,"source":0},{"extensions":{"S8S_v3d_texture":{"colorSpace":"srgb"}},"name":"file3","sampler":0,"source":1}]}