{
	"asset":{
		"generator":"Khronos glTF Blender I/O v3.6.28",
		"version":"2.0"
	},
	"extensionsUsed":[
		"KHR_materials_transmission",
		"KHR_materials_specular"
	],
	"scene":0,
	"scenes":[
		{
			"name":"Scene",
			"nodes":[
				0
			]
		}
	],
	"nodes":[
		{
			"mesh":0,
			"name":"14025_Soda_Can_v3_l3",
			"rotation":[
				0.7071068286895752,
				0,
				0,
				0.7071068286895752
			]
		}
	],
	"materials":[
		{
			"doubleSided":true,
			"extensions":{
				"KHR_materials_transmission":{
					"transmissionFactor":1
				},
				"KHR_materials_specular":{
					"specularColorFactor":[
						1,
						1,
						1
					]
				}
			},
			"name":"14025_Soda_Can",
			"pbrMetallicRoughness":{
				"baseColorTexture":{
					"index":0
				},
				"metallicFactor":0,
				"roughnessFactor":0.8999999761581421
			}
		}
	],
	"meshes":[
		{
			"name":"14025_Soda_Can_v3_l3",
			"primitives":[
				{
					"attributes":{
						"POSITION":0,
						"NORMAL":1,
						"TEXCOORD_0":2
					},
					"indices":3,
					"material":0
				}
			]
		}
	],
	"textures":[
		{
			"sampler":0,
			"source":0
		}
	],
	"images":[
		{
			"bufferView":4,
			"mimeType":"image/jpeg",
			"name":"14025_Soda_Can_diff"
		}
	],
	"accessors":[
		{
			"bufferView":0,
			"componentType":5126,
			"count":12456,
			"max":[
				3.457200050354004,
				13.303899765014648,
				3.457200050354004
			],
			"min":[
				-3.457200050354004,
				0.0142000000923872,
				-3.457200050354004
			],
			"type":"VEC3"
		},
		{
			"bufferView":1,
			"componentType":5126,
			"count":12456,
			"type":"VEC3"
		},
		{
			"bufferView":2,
			"componentType":5126,
			"count":12456,
			"type":"VEC2"
		},
		{
			"bufferView":3,
			"componentType":5123,
			"count":69042,
			"type":"SCALAR"
		}
	],
	"bufferViews":[
		{
			"buffer":0,
			"byteLength":149472,
			"byteOffset":0,
			"target":34962
		},
		{
			"buffer":0,
			"byteLength":149472,
			"byteOffset":149472,
			"target":34962
		},
		{
			"buffer":0,
			"byteLength":99648,
			"byteOffset":298944,
			"target":34962
		},
		{
			"buffer":0,
			"byteLength":138084,
			"byteOffset":398592,
			"target":34963
		},
		{
			"buffer":0,
			"byteLength":621143,
			"byteOffset":536676
		}
	],
	"samplers":[
		{
			"magFilter":9729,
			"minFilter":9987
		}
	],
	"buffers":[
		{
			"byteLength":1157820,
			"uri":"data:application/octet-stream;base64,"
		}
	]
}
